<?xml version="1.0" encoding="utf-8"?>
<!-- Generator: Adobe Illustrator 15.1.0, SVG Export Plug-In . SVG Version: 6.00 Build 0)  -->
<!DOCTYPE svg PUBLIC "-//W3C//DTD SVG 1.1//EN" "http://www.w3.org/Graphics/SVG/1.1/DTD/svg11.dtd">
<svg version="1.1" id="Layer_1" xmlns="http://www.w3.org/2000/svg" xmlns:xlink="http://www.w3.org/1999/xlink" x="0px" y="0px"
	 width="215px" height="74px" viewBox="0 0 215 74" enable-background="new 0 0 215 74" xml:space="preserve">
<path stroke="#FFFFFF" stroke-width="1.5" stroke-miterlimit="10" d="M214.958,63.057c0,6.531-4.797,10.59-11.322,10.59H11.821
	C5.293,73.646,0,68.35,0,61.82V11.864C0,5.334,5.293,0.04,11.821,0.04h191.814c6.525,0,11.322,5.295,11.322,11.824V63.057z"/>
<g>
	<g>
		<path fill="#FFFFFF" d="M146.901,52.875l-1.614,1.521c-0.372,0.205-0.743,0.443-1.113,0.613c-1.121,0.508-2.261,0.637-3.274,0.637
			c-1.078,0-2.768-0.07-4.491-1.316c-2.396-1.688-3.442-4.588-3.442-7.115c0-5.232,4.259-7.797,7.732-7.797
			c1.215,0,2.462,0.303,3.476,0.945c1.686,1.113,2.122,2.562,2.364,3.34l-7.934,3.205l-2.598,0.201
			c0.841,4.289,3.743,6.785,6.95,6.785c1.602,0,2.791-0.523,3.882-1.062C146.839,52.832,147.058,52.719,146.901,52.875z
			 M142.115,44.342c0.645-0.234,0.979-0.438,0.979-0.906c0-1.348-1.525-2.904-3.345-2.904c-1.349,0-3.879,1.049-3.879,4.695
			c0,0.568,0.067,1.174,0.102,1.781L142.115,44.342z"/>
		<path fill="#FFFFFF" d="M130.314,52.613c0,1.311,0.234,1.516,1.343,1.617c0.578,0.068,1.154,0.1,1.725,0.166l-1.248,0.744h-5.947
			c0.78-1.012,0.914-1.113,0.914-1.787V52.6l-0.013-20.063h-2.626l2.527-1.218h4.826c-1.046,0.605-1.358,0.975-1.493,2.155
			L130.314,52.613z"/>
		<path fill="#FFFFFF" d="M121.092,41.074c0.774,0.637,2.392,1.988,2.392,4.553c0,2.498-1.409,3.676-2.83,4.791
			c-0.436,0.439-0.945,0.916-0.945,1.652c0,0.746,0.51,1.15,0.877,1.453l1.219,0.941c1.482,1.25,2.833,2.398,2.833,4.727
			c0,3.176-3.072,6.375-8.877,6.375c-4.89,0-7.254-2.328-7.254-4.824c0-1.217,0.604-2.938,2.601-4.115
			c2.092-1.279,4.927-1.451,6.444-1.551c-0.474-0.611-1.015-1.252-1.015-2.299c0-0.572,0.172-0.912,0.338-1.314
			c-0.369,0.035-0.741,0.07-1.079,0.07c-3.579,0-5.603-2.67-5.603-5.301c0-1.553,0.708-3.273,2.162-4.521
			c1.924-1.584,4.218-1.857,6.041-1.857h6.954l-2.162,1.221H121.092z M118.7,56.055c-0.276-0.037-0.442-0.037-0.776-0.037
			c-0.306,0-2.129,0.066-3.541,0.541c-0.747,0.273-2.906,1.08-2.906,3.477c0,2.393,2.331,4.117,5.938,4.117
			c3.239,0,4.96-1.553,4.96-3.645C122.374,58.787,121.261,57.879,118.7,56.055z M119.671,49.643c0.78-0.779,0.848-1.855,0.848-2.467
			c0-2.426-1.447-6.207-4.252-6.207c-0.875,0-1.823,0.439-2.361,1.119c-0.57,0.703-0.741,1.615-0.741,2.492
			c0,2.26,1.317,6.008,4.217,6.008C118.227,50.588,119.137,50.176,119.671,49.643z"/>
		<path fill="#FFFFFF" d="M100.17,55.576c-5.364,0-8.234-4.178-8.234-7.959c0-4.418,3.608-8.199,8.74-8.199
			c4.961,0,8.068,3.883,8.068,7.961C108.744,51.361,105.673,55.576,100.17,55.576z M104.39,52.846
			c0.816-1.08,1.014-2.428,1.014-3.742c0-2.971-1.416-8.639-5.601-8.639c-1.113,0-2.234,0.434-3.042,1.145
			c-1.318,1.182-1.553,2.664-1.553,4.121c0,3.334,1.647,8.832,5.737,8.832C102.266,54.562,103.612,53.924,104.39,52.846z"/>
		<path fill="#FFFFFF" d="M82.211,55.576c-5.365,0-8.23-4.178-8.23-7.959c0-4.418,3.609-8.199,8.739-8.199
			c4.958,0,8.062,3.883,8.062,7.961C90.781,51.361,87.715,55.576,82.211,55.576z M86.432,52.846c0.81-1.08,1.012-2.428,1.012-3.742
			c0-2.971-1.42-8.639-5.601-8.639c-1.117,0-2.226,0.434-3.036,1.145c-1.32,1.182-1.554,2.664-1.554,4.121
			c0,3.334,1.654,8.832,5.737,8.832C84.308,54.562,85.652,53.924,86.432,52.846z"/>
		<path fill="#FFFFFF" d="M71.836,54.406l-4.524,1.035c-1.833,0.289-3.479,0.543-5.222,0.543c-8.727,0-12.051-6.424-12.051-11.449
			c0-6.141,4.711-11.832,12.778-11.832c1.707,0,3.35,0.251,4.846,0.658c2.371,0.667,3.479,1.487,4.173,1.969l-2.628,2.496
			L68.1,38.074l0.79-1.259c-1.07-1.045-3.037-2.974-6.77-2.974c-4.991,0-8.757,3.794-8.757,9.333c0,5.949,4.3,11.545,11.194,11.545
			c2.026,0,3.069-0.406,4.016-0.787v-5.1l-4.776,0.258l2.532-1.361h6.703l-0.819,0.789c-0.222,0.189-0.251,0.252-0.313,0.504
			c-0.033,0.289-0.063,1.205-0.063,1.527V54.406z"/>
	</g>
	<g>
		<path fill="#FFFFFF" d="M156.629,53.018v8.596h-1.707V39.742h1.707v2.49c1.111-1.609,3.144-2.885,5.504-2.885
			c4.232,0,7.084,3.211,7.084,8.293c0,5.049-2.852,8.328-7.084,8.328C159.904,55.969,157.909,54.82,156.629,53.018z M167.383,47.641
			c0-3.83-1.997-6.752-5.538-6.752c-2.199,0-4.302,1.729-5.216,3.234v7.002c0.914,1.51,3.017,3.301,5.216,3.301
			C165.386,54.426,167.383,51.479,167.383,47.641z"/>
		<path fill="#FFFFFF" d="M171.548,55.574V33.704h1.706v21.871H171.548z"/>
		<path fill="#FFFFFF" d="M192.408,60.199c0.364,0.162,0.987,0.264,1.383,0.264c1.044,0,1.771-0.428,2.424-1.936l1.245-2.82
			l-6.725-15.965h1.904l5.769,13.834l5.712-13.834h1.931l-8.201,19.314c-0.851,1.99-2.189,2.947-4.029,2.947
			c-0.552,0-1.279-0.1-1.706-0.23L192.408,60.199z"/>
		<path fill="#FFFFFF" d="M187.422,55.527c-0.114-0.549-0.2-1.033-0.263-1.438c-0.053-0.402-0.082-0.814-0.082-1.234
			c-0.586,0.859-1.415,1.574-2.474,2.139c-1.06,0.566-2.066,0.844-3.448,0.844c-1.663,0-2.953-0.408-3.875-1.238
			c-0.918-0.83-1.38-1.953-1.38-3.373s0.669-2.572,2.003-3.453c1.334-0.885,3.059-1.324,5.192-1.324h3.981v-1.967
			c0-1.133-0.387-2.023-1.157-2.67c-0.774-0.646-1.86-0.975-3.269-0.975c-1.287,0-2.331,0.299-3.126,0.881
			c-0.788,0.594-1.185,1.33-1.185,2.217h-1.747l-0.036-0.084c-0.063-1.195,0.484-2.246,1.647-3.15
			c1.157-0.906,2.675-1.361,4.542-1.361c1.86,0,3.366,0.449,4.502,1.342c1.134,0.885,1.703,2.164,1.703,3.836v7.811
			c0,0.561,0.026,1.104,0.097,1.631c0.072,0.529,0.187,1.057,0.34,1.568H187.422z M181.364,54.283c1.45,0,2.492-0.324,3.558-0.965
			c1.058-0.637,1.777-1.469,2.155-2.475v-3.039h-4c-1.528,0-2.793,0.338-3.788,1.02c-0.997,0.68-1.503,1.504-1.503,2.461
			c0,0.902,0.32,1.625,0.957,2.172C179.381,54.01,180.253,54.283,181.364,54.283z"/>
	</g>
</g>
<g>
	<g>
		<path fill="#FFFFFF" d="M50.11,15.762c0-3.361,2.497-5.522,5.603-5.522c2.081,0,3.441,0.992,4.29,2.209l-1.521,0.881
			c-0.576-0.801-1.585-1.425-2.77-1.425c-2.112,0-3.682,1.601-3.682,3.857c0,2.225,1.569,3.857,3.682,3.857
			c1.089,0,2.049-0.496,2.529-0.96V17.01h-3.201v-1.648h5.058v3.985c-1.04,1.169-2.545,1.953-4.386,1.953
			C52.607,21.3,50.11,19.108,50.11,15.762z"/>
		<path fill="#FFFFFF" d="M62.415,21.092V10.416h7.314v1.649h-5.442v2.753h5.331v1.648h-5.331v2.978h5.442v1.648H62.415z"/>
		<path fill="#FFFFFF" d="M74.912,21.092v-9.027h-3.233v-1.649h8.339v1.649h-3.232v9.027H74.912z"/>
		<path fill="#FFFFFF" d="M86.527,21.092V10.416h1.872v10.677H86.527z"/>
		<path fill="#FFFFFF" d="M93.615,21.092v-9.027h-3.233v-1.649h8.339v1.649h-3.232v9.027H93.615z"/>
		<path fill="#FFFFFF" d="M104.766,15.762c0-3.186,2.257-5.522,5.459-5.522c3.185,0,5.458,2.337,5.458,5.522
			s-2.273,5.522-5.458,5.522C107.022,21.285,104.766,18.948,104.766,15.762z M113.762,15.762c0-2.209-1.393-3.857-3.537-3.857
			c-2.161,0-3.538,1.648-3.538,3.857c0,2.192,1.377,3.857,3.538,3.857C112.369,19.62,113.762,17.955,113.762,15.762z"/>
		<path fill="#FFFFFF" d="M125.312,21.092l-5.57-7.635v7.635h-1.872V10.416h1.921l5.458,7.396v-7.396h1.873v10.677H125.312z"/>
	</g>
</g>
<g>
	<polygon fill="none" points="27.749,46.75 33.225,41.273 33.223,41.273 27.749,46.75 10.271,29.274 10.271,29.274 27.749,46.752 
		10.243,64.258 10.243,64.258 27.749,46.752 33.249,52.252 33.252,52.252 	"/>
	
		<linearGradient id="SVGID_1_" gradientUnits="userSpaceOnUse" x1="515.9131" y1="-439.876" x2="492.8359" y2="-454.3186" gradientTransform="matrix(0.7071 0.7071 -0.7071 0.7071 -651.7739 -8.4199)">
		<stop  offset="0" style="stop-color:#D6FFA1"/>
		<stop  offset="0.3264" style="stop-color:#93E2A7"/>
		<stop  offset="1" style="stop-color:#00A3B5"/>
	</linearGradient>
	<path fill="url(#SVGID_1_)" d="M33.223,41.273L11.886,29.542c-0.604-0.331-1.163-0.408-1.615-0.268L27.749,46.75L33.223,41.273z"/>
	
		<linearGradient id="SVGID_2_" gradientUnits="userSpaceOnUse" x1="502.4951" y1="-452.2148" x2="532.416" y2="-444.3932" gradientTransform="matrix(0.7071 0.7071 -0.7071 0.7071 -651.7739 -8.4199)">
		<stop  offset="0" style="stop-color:#FF177B"/>
		<stop  offset="0.6721" style="stop-color:#FFA976"/>
		<stop  offset="1" style="stop-color:#FFEC73"/>
	</linearGradient>
	<path fill="url(#SVGID_2_)" d="M33.252,52.252l7.283-4.004c1.477-0.816,1.477-2.143,0-2.955l-7.311-4.02l-5.476,5.477
		L33.252,52.252z"/>
	
		<linearGradient id="SVGID_3_" gradientUnits="userSpaceOnUse" x1="519.1973" y1="-428.9224" x2="486.7538" y2="-448.0102" gradientTransform="matrix(0.7071 0.7071 -0.7071 0.7071 -651.7739 -8.4199)">
		<stop  offset="0" style="stop-color:#63FFD4"/>
		<stop  offset="0.4854" style="stop-color:#32A0BA"/>
		<stop  offset="0.8349" style="stop-color:#1262A9"/>
		<stop  offset="1" style="stop-color:#064AA2"/>
	</linearGradient>
	<path fill="url(#SVGID_3_)" d="M10.271,29.274c-0.649,0.203-1.069,0.86-1.069,1.854l0.004,31.284c0,0.982,0.407,1.631,1.038,1.846
		l17.506-17.506L10.271,29.274z"/>
	
		<linearGradient id="SVGID_4_" gradientUnits="userSpaceOnUse" x1="530.9756" y1="-444.0786" x2="510.9989" y2="-417.7603" gradientTransform="matrix(0.7071 0.7071 -0.7071 0.7071 -651.7739 -8.4199)">
		<stop  offset="0" style="stop-color:#FF4521"/>
		<stop  offset="0.3411" style="stop-color:#D43E65"/>
		<stop  offset="0.7935" style="stop-color:#9F36B9"/>
		<stop  offset="1" style="stop-color:#8A33DB"/>
	</linearGradient>
	<path fill="url(#SVGID_4_)" d="M10.243,64.258c0.454,0.154,1.024,0.082,1.643-0.258l21.363-11.748l-5.5-5.5L10.243,64.258z"/>
</g>
</svg>
