<?xml version="1.0" encoding="utf-8"?>
<!-- Generator: Adobe Illustrator 16.0.4, SVG Export Plug-In . SVG Version: 6.00 Build 0)  -->
<!DOCTYPE svg PUBLIC "-//W3C//DTD SVG 1.1//EN" "http://www.w3.org/Graphics/SVG/1.1/DTD/svg11.dtd">
<svg version="1.1" id="레이어_1" xmlns="http://www.w3.org/2000/svg" xmlns:xlink="http://www.w3.org/1999/xlink" x="0px"
	 y="0px" width="512px" height="512px" viewBox="0 0 512 512" enable-background="new 0 0 512 512" xml:space="preserve">
<path id="radio-tower-icon" fill="#EEEEEE" d="M436.08,1.441c45.82,45.821,74.16,109.122,74.16,179.043
	c0,69.92-28.34,133.223-74.16,179.042l-37.062-37.062c36.336-36.336,58.809-86.533,58.809-141.98S435.354,74.84,399.018,38.504
	L436.08,1.441z M328.54,108.981c18.302,18.3,29.618,43.58,29.618,71.503s-11.316,53.204-29.618,71.503l37.383,37.384
	c27.868-27.866,45.105-66.365,45.105-108.888c0-42.523-17.237-81.02-45.105-108.887L328.54,108.981z M312.137,180.483
	c0-31.002-25.132-56.14-56.138-56.14c-31.005,0-56.135,25.137-56.135,56.14c0,17.25,7.786,32.676,20.034,42.97
	c6.606,5.553,10.417,13.746,10.417,22.377v264.73h51.902V245.387c0-8.541,3.742-16.677,10.234-22.224
	C304.498,212.87,312.137,197.571,312.137,180.483z M112.985,322.462c-36.336-36.336-58.81-86.534-58.81-141.981
	c0-55.446,22.474-105.644,58.81-141.979L75.921,1.438C30.1,47.26,1.76,110.562,1.76,180.482c0,69.922,28.341,133.221,74.162,179.042
	L112.985,322.462z M146.075,289.37c-27.867-27.867-45.104-66.366-45.104-108.888c0-42.523,17.236-81.021,45.104-108.888
	l37.384,37.383c-18.301,18.3-29.618,43.58-29.618,71.503s11.318,53.203,29.618,71.503L146.075,289.37z"/>
</svg>
