<?xml version="1.0" encoding="utf-8"?>
<!-- Generator: Adobe Illustrator 16.0.0, SVG Export Plug-In . SVG Version: 6.00 Build 0)  -->
<!DOCTYPE svg PUBLIC "-//W3C//DTD SVG 1.1//EN" "http://www.w3.org/Graphics/SVG/1.1/DTD/svg11.dtd">
<svg version="1.1" id="Layer_1" xmlns="http://www.w3.org/2000/svg" xmlns:xlink="http://www.w3.org/1999/xlink" x="0px" y="0px"
	 width="412px" height="412px" viewBox="0 0 412 412" enable-background="new 0 0 412 412" xml:space="preserve">
<path id="crosshair-2-icon" fill="#FFFFFF" d="M206,0C92.229,0,0,92.229,0,206c0,113.771,92.229,206,206,206
	c113.771,0,206-92.229,206-206C412,92.229,319.771,0,206,0z M226,370.811v-73.861h-40v73.861
	C110.387,361.786,50.23,301.743,41.19,226h73.861v-40H41.19C50.214,110.386,110.256,50.23,186,41.19v73.861h40V41.19
	c75.612,9.024,135.771,69.066,144.81,144.81h-73.86v40h73.86C361.787,301.611,301.743,361.771,226,370.811z"/>
</svg>
