<?xml version="1.0" encoding="utf-8"?>
<!-- Generator: Adobe Illustrator 16.0.0, SVG Export Plug-In . SVG Version: 6.00 Build 0)  -->
<!DOCTYPE svg PUBLIC "-//W3C//DTD SVG 1.1//EN" "http://www.w3.org/Graphics/SVG/1.1/DTD/svg11.dtd">
<svg version="1.1" id="Layer_1" xmlns="http://www.w3.org/2000/svg" xmlns:xlink="http://www.w3.org/1999/xlink" x="0px" y="0px"
	 width="412px" height="412px" viewBox="0 0 412 412" enable-background="new 0 0 412 412" xml:space="preserve">
<path id="photo-camera-4-icon" fill="#FFFFFF" d="M289.652,227.479c0,29.391-23.909,53.299-53.299,53.299
	s-53.298-23.908-53.298-53.299c0-29.389,23.909-53.297,53.298-53.297S289.652,198.09,289.652,227.479z M412,98.125v267H0v-267
	h113.219c11.253,0,21.56-6.297,26.694-16.31l17.919-34.94h153.665l19.819,35.785c5.285,9.543,15.335,15.465,26.243,15.465H412z
	 M104.831,156.375c0-11.322-9.178-20.5-20.5-20.5c-11.322,0-20.5,9.178-20.5,20.5s9.178,20.5,20.5,20.5
	C95.653,176.875,104.831,167.697,104.831,156.375z M335.5,227.479c0-54.668-44.477-96.854-99.146-96.854
	c-54.668,0-99.146,42.185-99.146,96.854c0,54.67,44.477,99.146,99.146,99.146C291.023,326.625,335.5,282.148,335.5,227.479z
	 M92.331,54.625h-65.5v27h65.5V54.625z"/>
</svg>
