<?xml version="1.0" encoding="utf-8"?>
<!-- Generator: Adobe Illustrator 16.0.0, SVG Export Plug-In . SVG Version: 6.00 Build 0)  -->
<!DOCTYPE svg PUBLIC "-//W3C//DTD SVG 1.1//EN" "http://www.w3.org/Graphics/SVG/1.1/DTD/svg11.dtd">
<svg version="1.1" id="Layer_1" xmlns="http://www.w3.org/2000/svg" xmlns:xlink="http://www.w3.org/1999/xlink" x="0px" y="0px"
	 width="412px" height="412px" viewBox="0 0 412 412" enable-background="new 0 0 412 412" xml:space="preserve">
<path id="calendar-5-icon" fill="#FFFFFF" d="M147.453,245.951H88.548v-58.904h58.905V245.951z M236.452,187.047h-58.904v58.904
	h58.904V187.047z M325.452,187.047h-58.905v58.904h58.905V187.047z M147.453,273.047H88.548v58.906h58.905V273.047z
	 M236.452,273.047h-58.904v58.906h58.904V273.047z M325.451,273.047h-58.904v58.906h58.904V273.047z M347.389,68.131
	c0,10.035-8.135,18.171-18.17,18.171s-18.171-8.136-18.171-18.171V22.402c0-10.034,8.136-18.17,18.171-18.17
	s18.17,8.136,18.17,18.17V68.131z M101.889,22.32c0-10.035-8.136-18.171-18.17-18.171c-10.036,0-18.171,8.136-18.171,18.171v45.728
	c0,10.035,8.135,18.171,18.171,18.171c10.034,0,18.17-8.136,18.17-18.171V22.32z M369.352,48.851v18.616
	c0,22.13-18.004,40.134-40.133,40.134c-22.13,0-40.134-18.004-40.134-40.134V48.851H123.852v18.533
	c0,22.13-18.004,40.134-40.133,40.134c-22.13,0-40.134-18.004-40.134-40.134V48.851H0v359h412v-359H369.352z M372,367.852H40V145.38
	h332V367.852z"/>
</svg>
