<?xml version="1.0" encoding="utf-8"?>
<!-- Generator: Adobe Illustrator 16.0.0, SVG Export Plug-In . SVG Version: 6.00 Build 0)  -->
<!DOCTYPE svg PUBLIC "-//W3C//DTD SVG 1.1//EN" "http://www.w3.org/Graphics/SVG/1.1/DTD/svg11.dtd">
<svg version="1.1" id="Layer_1" xmlns="http://www.w3.org/2000/svg" xmlns:xlink="http://www.w3.org/1999/xlink" x="0px" y="0px"
	 width="412px" height="412px" viewBox="0 0 412 412" enable-background="new 0 0 412 412" xml:space="preserve">
<path id="book-9-icon" fill="#303030" d="M398,38C92.904,38,92.904,38,74,38c-23.611,0-23.611,34.528,0,34.528
	c8.055,0,49.058,0,113.82,0v40.569h-82.293V372H358V113.098h-23.613V72.529c33.23,0,62.264,0,63.613,0V412H64
	c-27.613,0-50-22.386-50-50V50C14,22.386,36.387,0,64,0h334V38z M220.82,86.098c0,14.098,0,144.964,0,144.964l39.782-37.783
	l39.783,37.783V86.098c0-17.902,7.862-25.902,21-28.569c-12.472,0-67.138,0-78.805,0S220.82,68.861,220.82,86.098z"/>
</svg>
