<?xml version="1.0" encoding="utf-8"?>
<!-- Generator: Adobe Illustrator 16.0.0, SVG Export Plug-In . SVG Version: 6.00 Build 0)  -->
<!DOCTYPE svg PUBLIC "-//W3C//DTD SVG 1.1//EN" "http://www.w3.org/Graphics/SVG/1.1/DTD/svg11.dtd">
<svg version="1.1" id="Layer_1" xmlns="http://www.w3.org/2000/svg" xmlns:xlink="http://www.w3.org/1999/xlink" x="0px" y="0px"
	 width="412px" height="412px" viewBox="0 0 412 412" enable-background="new 0 0 412 412" xml:space="preserve">
<path id="speech-bubble-15-icon" fill="#303030" d="M124.059,304.374c-0.031-0.008-0.062-0.015-0.093-0.021
	C98.074,320.318,40.983,336.46,0.825,343.766c14.984-29.726,31.616-70.527,30.764-98.978C11.403,220.511,0,189.224,0,157.358
	C0,67.518,87.383,1.831,185.209,1.831c97.22,0,185.211,65.193,185.211,155.527c0,1.283-0.027,2.564-0.066,3.844
	c-11.284-6.088-23.506-11.037-36.621-14.68C326.878,85.661,262.89,37.807,185.21,37.807c-82.237,0-149.141,53.631-149.141,119.551
	c0,34.688,15.009,56.529,36.192,78.068c-4.306,31.98-14.646,59.781-14.646,59.781s30.542-8.064,65.253-28.275
	C121.395,279.616,121.806,292.102,124.059,304.374z M411.432,410.169c-27.634-5.029-66.922-16.137-84.738-27.123
	c-98.103,24.029-169.601-36.424-169.601-101.153c0-62.166,60.552-107.029,127.453-107.029c67.322,0,127.454,45.203,127.454,107.029
	c0,21.928-7.85,43.457-21.738,60.164C389.674,361.634,401.121,389.712,411.432,410.169z M252.524,283.198
	c0-9.648-7.841-17.47-17.516-17.47c-9.673,0-17.515,7.82-17.515,17.47s7.842,17.471,17.515,17.471
	C244.684,300.669,252.524,292.848,252.524,283.198z M304.75,283.198c0-9.648-7.841-17.47-17.515-17.47s-17.516,7.82-17.516,17.47
	s7.842,17.471,17.516,17.471S304.75,292.848,304.75,283.198z M356.339,283.198c0-9.648-7.842-17.47-17.515-17.47
	c-9.674,0-17.516,7.82-17.516,17.47s7.842,17.471,17.516,17.471C348.497,300.669,356.339,292.848,356.339,283.198z"/>
</svg>
