<?xml version="1.0" encoding="utf-8"?>
<!-- Generator: Adobe Illustrator 15.1.0, SVG Export Plug-In . SVG Version: 6.00 Build 0)  -->
<!DOCTYPE svg PUBLIC "-//W3C//DTD SVG 1.1//EN" "http://www.w3.org/Graphics/SVG/1.1/DTD/svg11.dtd">
<svg version="1.1" id="Layer_1" xmlns="http://www.w3.org/2000/svg" xmlns:xlink="http://www.w3.org/1999/xlink" x="0px" y="0px"
	 width="412px" height="275px" viewBox="0 0 412 275" enable-background="new 0 0 412 275" xml:space="preserve">
<path id="user-13-icon" fill="#303030" d="M411.956,275.145H305.558c-0.006-115.801-57.887-60.764-57.887-162.232
	c0-36.629,23.979-56.51,54.771-56.51c45.496,0,77.152,43.438,34.07,124.667c-14.148,26.686,15.072,33.021,46.475,40.27
	C414.37,228.574,411.956,245.121,411.956,275.145z M239.118,207.463c-39.492-9.107-76.254-17.086-58.45-50.65
	C234.858,54.643,195.032,0,137.806,0C79.452,0,40.604,56.736,94.945,156.812c18.337,33.77-19.809,41.736-58.452,50.65
	c-39.476,9.104-36.439,29.918-36.439,67.686h275.503C275.558,237.381,278.595,216.566,239.118,207.463z"/>
</svg>
