<?xml version="1.0" encoding="utf-8"?>
<!-- Generator: Adobe Illustrator 16.0.0, SVG Export Plug-In . SVG Version: 6.00 Build 0)  -->
<!DOCTYPE svg PUBLIC "-//W3C//DTD SVG 1.1//EN" "http://www.w3.org/Graphics/SVG/1.1/DTD/svg11.dtd">
<svg version="1.1" id="Layer_1" xmlns="http://www.w3.org/2000/svg" xmlns:xlink="http://www.w3.org/1999/xlink" x="0px" y="0px"
	 width="412px" height="412px" viewBox="0 0 412 412" enable-background="new 0 0 412 412" xml:space="preserve">
<path id="user-13-icon" fill="#303030" d="M411.956,343.573H305.558c-0.005-115.8-57.887-60.761-57.887-162.232
	c0-36.629,23.98-56.51,54.772-56.51c45.495,0,77.157,43.439,34.074,124.666c-14.152,26.685,15.072,33.024,46.47,40.269
	C414.371,297.003,411.956,313.55,411.956,343.573z M239.118,275.891c-39.492-9.109-76.254-17.086-58.45-50.652
	c54.192-102.17,14.364-156.812-42.862-156.812c-58.354,0-97.202,56.736-42.861,156.812c18.337,33.771-19.809,41.738-58.452,50.652
	c-39.476,9.104-36.439,29.918-36.439,67.684h275.504C275.558,305.809,278.595,284.995,239.118,275.891z"/>
</svg>
