<?xml version="1.0" encoding="utf-8"?>
<!-- Generator: Adobe Illustrator 15.1.0, SVG Export Plug-In . SVG Version: 6.00 Build 0)  -->
<!DOCTYPE svg PUBLIC "-//W3C//DTD SVG 1.1//EN" "http://www.w3.org/Graphics/SVG/1.1/DTD/svg11.dtd">
<svg version="1.1" id="Layer_1" xmlns="http://www.w3.org/2000/svg" xmlns:xlink="http://www.w3.org/1999/xlink" x="0px" y="0px"
	 width="412px" height="412px" viewBox="0 0 412 412" enable-background="new 0 0 412 412" xml:space="preserve">
<path id="user-13-icon" fill="#303030" d="M411.957,333.571H305.559c-0.006-115.802-57.887-60.764-57.887-162.232
	c0-36.629,23.979-56.51,54.77-56.51c45.496,0,77.152,43.438,34.071,124.668c-14.147,26.686,15.071,33.021,46.474,40.27
	C414.371,287.001,411.957,303.548,411.957,333.571z M239.119,265.89c-39.493-9.107-76.255-17.086-58.451-50.65
	c54.189-102.17,14.364-156.813-42.862-156.813c-58.354,0-97.203,56.736-42.861,156.813c18.337,33.769-19.809,41.734-58.452,50.648
	c-39.476,9.105-36.439,29.919-36.439,67.688h275.502C275.559,295.808,278.596,274.993,239.119,265.89z"/>
</svg>
