<?xml version="1.0" encoding="utf-8"?>
<!-- Generator: Adobe Illustrator 16.0.0, SVG Export Plug-In . SVG Version: 6.00 Build 0)  -->
<!DOCTYPE svg PUBLIC "-//W3C//DTD SVG 1.1//EN" "http://www.w3.org/Graphics/SVG/1.1/DTD/svg11.dtd">
<svg version="1.1" id="Layer_1" xmlns="http://www.w3.org/2000/svg" xmlns:xlink="http://www.w3.org/1999/xlink" x="0px" y="0px"
	 width="412px" height="275.149px" viewBox="0 68.428 412 275.149" enable-background="new 0 68.428 412 275.149"
	 xml:space="preserve">
<path id="user-13-icon" fill="#303030" d="M412.956,343.573H306.558c-0.005-115.8-57.887-60.761-57.887-162.232
	c0-36.629,23.979-56.51,54.772-56.51c45.495,0,77.154,43.439,34.071,124.666c-14.149,26.687,15.072,33.024,46.473,40.271
	C415.371,297.003,412.956,313.55,412.956,343.573z M240.118,275.893c-39.492-9.108-76.254-17.086-58.45-50.652
	c54.191-102.169,14.364-156.812-42.862-156.812c-58.354,0-97.202,56.736-42.861,156.812c18.337,33.771-19.809,41.738-58.452,50.652
	c-39.476,9.104-36.439,29.918-36.439,67.685h275.504C276.559,305.811,279.596,284.995,240.118,275.893z"/>
</svg>
