<?xml version="1.0" encoding="utf-8"?>
<!-- Generator: Adobe Illustrator 16.0.0, SVG Export Plug-In . SVG Version: 6.00 Build 0)  -->
<!DOCTYPE svg PUBLIC "-//W3C//DTD SVG 1.1//EN" "http://www.w3.org/Graphics/SVG/1.1/DTD/svg11.dtd">
<svg version="1.1" id="Layer_1" xmlns="http://www.w3.org/2000/svg" xmlns:xlink="http://www.w3.org/1999/xlink" x="0px" y="0px"
	 width="412px" height="412px" viewBox="0 0 412 412" enable-background="new 0 0 412 412" xml:space="preserve">
<path id="refresh-2-icon" fill="#303030" d="M133.744,51.151c-52.797,32.74-83.033,87.956-85.97,145.633H0l76.603,76.985
	l76.986-76.985H106.26c2.801-38.193,23.215-74.296,58.249-96.021c58.121-36.042,134.456-18.141,170.497,39.98
	c36.041,58.122,18.143,134.456-39.979,170.495c-53.189,32.984-121.625,20.785-160.481-26.068l-41.038,41.82
	c57.759,65.206,155.749,81.32,232.284,33.861c85.522-53.033,111.86-165.353,58.827-250.875
	C331.586,24.457,219.268-1.881,133.744,51.151z"/>
</svg>
